# xmcd
# 
# Track frame offsets:
#     150
#     16362
#     32535
#     48715
# 
# Disc length: 1040
# 
# Revision: 0
# Processed by: cddbd v1.5.2PL0 Copyright (c) Steve Scherf et al.
# Submitted via: BonkEnc v1.0.8
# 
DISCID=2a040e04
DTITLE=Underwater Love - Underwater Love
DYEAR=97
DGENRE=
TTITLE0=Underwater Love Radio Edit
TTITLE1=Underwater Love Who Killed The Bass-Player Mix
TTITLE2=Underwater Love Instrumental
TTITLE3=Call For Winter
EXTD=
EXTT0=
EXTT1=
EXTT2=
EXTT3=
PLAYORDER=
